<?xml version="1.0" ?><svg data-name="Layer 1" id="Layer_1" viewBox="0 0 272 272" xmlns="http://www.w3.org/2000/svg"><defs><style>.cls-1{fill:#8bc24a;}.cls-2{fill:#4cb050;}.cls-3{fill:#cddc39;}</style></defs><title/><path class="cls-1" d="M108.36,146.45a29.24,29.24,0,0,0,1.86-10.25c0-17.78-16-32.2-35.78-32.2s-35.78,14.42-35.78,32.2a29.26,29.26,0,0,0,.37,4.6h-.37C21.73,140.8,8,153.16,8,168.4H8C8,183.64,21.73,196,38.67,196H89.78c16.94,0,30.67-12.36,30.67-27.6h0C120.44,159.45,115.7,151.49,108.36,146.45Z"/><path class="cls-2" d="M239.19,134a47.26,47.26,0,0,0,.81-8.63C240,98.12,216.72,76,188,76c-22.36,0-41.41,13.41-48.76,32.22a30.6,30.6,0,0,0-15.24-4c-15.46,0-28,11.06-28,24.71a22.05,22.05,0,0,0,1.52,8C87,142.52,80,152.65,80,164.24h0C80,181.78,96.12,196,116,196H228c19.88,0,36-14.22,36-31.76h0C264,150.14,253.59,138.2,239.19,134Z"/><polygon class="cls-3" points="210.83 111.52 208 114.34 205.17 111.52 199.51 117.17 202.34 120 199.51 122.83 205.17 128.49 208 125.66 210.83 128.49 216.49 122.83 213.66 120 216.49 117.17 210.83 111.52"/><polygon class="cls-3" points="170.83 151.51 168 154.34 165.17 151.51 159.51 157.17 162.34 160 159.51 162.83 165.17 168.49 168 165.66 170.83 168.49 176.49 162.83 173.66 160 176.49 157.17 170.83 151.51"/><polygon class="cls-3" points="142.83 123.52 140 126.34 137.17 123.52 131.51 129.17 134.34 132 131.51 134.83 137.17 140.49 140 137.66 142.83 140.49 148.49 134.83 145.66 132 148.49 129.17 142.83 123.52"/><polygon class="cls-3" points="42.83 159.51 40 162.34 37.17 159.51 31.52 165.17 34.34 168 31.52 170.83 37.17 176.49 40 173.66 42.83 176.49 48.48 170.83 45.66 168 48.48 165.17 42.83 159.51"/><polygon class="cls-3" points="74.83 127.52 72 130.34 69.17 127.52 63.52 133.17 66.34 136 63.52 138.83 69.17 144.49 72 141.66 74.83 144.49 80.48 138.83 77.66 136 80.48 133.17 74.83 127.52"/></svg>