<?xml version="1.0" encoding="UTF-8" standalone="no"?>
<!DOCTYPE svg PUBLIC "-//W3C//DTD SVG 1.1//EN" "http://www.w3.org/Graphics/SVG/1.1/DTD/svg11.dtd">
<svg width="100%" height="100%" viewBox="0 0 885 318" version="1.1" xmlns="http://www.w3.org/2000/svg" xmlns:xlink="http://www.w3.org/1999/xlink" xml:space="preserve" xmlns:serif="http://www.serif.com/" style="fill-rule:evenodd;clip-rule:evenodd;stroke-linejoin:round;stroke-miterlimit:2;">
    <g id="_-Festival-" serif:id="(Festival)" transform="matrix(1.43193,0,0,1.33805,-1124.47,-1244.47)">
        <g transform="matrix(200,0,0,200,783.614,1165.23)">
            <path d="M0.157,-0L0.044,-0C0.041,-0 0.04,-0.002 0.04,-0.005L0.042,-0.692C0.042,-0.694 0.043,-0.696 0.045,-0.696L0.366,-0.696C0.369,-0.696 0.371,-0.694 0.371,-0.692L0.371,-0.579C0.371,-0.576 0.369,-0.575 0.367,-0.575L0.162,-0.575L0.162,-0.42L0.367,-0.42C0.369,-0.42 0.371,-0.418 0.371,-0.415L0.372,-0.302C0.372,-0.299 0.37,-0.298 0.367,-0.298L0.162,-0.298L0.162,-0.005C0.162,-0.002 0.16,-0 0.157,-0Z" style="fill:rgb(189,31,67);fill-rule:nonzero;"/>
        </g>
        <g transform="matrix(200,0,0,200,859.786,1165.23)">
            <path d="M0.367,-0L0.043,-0C0.041,-0 0.04,-0.002 0.04,-0.005L0.041,-0.692C0.041,-0.694 0.042,-0.696 0.044,-0.696L0.366,-0.696C0.368,-0.696 0.37,-0.694 0.37,-0.691L0.37,-0.579C0.37,-0.576 0.368,-0.575 0.366,-0.575L0.161,-0.575L0.161,-0.419L0.366,-0.419C0.368,-0.419 0.37,-0.418 0.37,-0.415L0.371,-0.302C0.371,-0.299 0.369,-0.298 0.367,-0.298L0.161,-0.298L0.161,-0.123L0.367,-0.123C0.369,-0.123 0.371,-0.121 0.371,-0.118L0.371,-0.004C0.371,-0.001 0.369,-0 0.367,-0Z" style="fill:rgb(189,31,67);fill-rule:nonzero;"/>
        </g>
        <g transform="matrix(200,0,0,200,943.771,1165.23)">
            <path d="M0.209,0.01C0.174,0.01 0.141,0.001 0.111,-0.018C0.082,-0.036 0.058,-0.06 0.04,-0.091C0.023,-0.121 0.014,-0.154 0.014,-0.191L0.014,-0.237C0.014,-0.24 0.015,-0.242 0.019,-0.242L0.131,-0.242C0.133,-0.242 0.135,-0.24 0.135,-0.237L0.135,-0.191C0.135,-0.169 0.142,-0.15 0.157,-0.135C0.171,-0.119 0.189,-0.111 0.209,-0.111C0.23,-0.111 0.248,-0.119 0.263,-0.135C0.277,-0.151 0.285,-0.17 0.285,-0.191C0.285,-0.215 0.269,-0.237 0.237,-0.255C0.232,-0.258 0.225,-0.262 0.217,-0.267C0.208,-0.272 0.198,-0.277 0.187,-0.283C0.176,-0.289 0.165,-0.295 0.154,-0.302C0.143,-0.308 0.133,-0.313 0.123,-0.319C0.086,-0.34 0.059,-0.367 0.041,-0.4C0.024,-0.432 0.015,-0.468 0.015,-0.509C0.015,-0.546 0.024,-0.579 0.042,-0.609C0.06,-0.639 0.084,-0.663 0.114,-0.68C0.143,-0.697 0.175,-0.706 0.209,-0.706C0.245,-0.706 0.278,-0.697 0.307,-0.68C0.337,-0.662 0.36,-0.638 0.378,-0.608C0.396,-0.579 0.405,-0.546 0.405,-0.509L0.405,-0.427C0.405,-0.424 0.403,-0.423 0.401,-0.423L0.289,-0.423C0.286,-0.423 0.285,-0.424 0.285,-0.427L0.284,-0.509C0.284,-0.532 0.276,-0.551 0.262,-0.566C0.247,-0.581 0.23,-0.588 0.209,-0.588C0.189,-0.588 0.171,-0.58 0.157,-0.564C0.142,-0.549 0.135,-0.53 0.135,-0.509C0.135,-0.487 0.139,-0.469 0.149,-0.454C0.158,-0.439 0.175,-0.425 0.2,-0.412C0.202,-0.411 0.208,-0.408 0.218,-0.402C0.227,-0.397 0.238,-0.391 0.249,-0.385C0.261,-0.379 0.271,-0.373 0.281,-0.368C0.29,-0.363 0.296,-0.36 0.298,-0.359C0.331,-0.34 0.357,-0.318 0.377,-0.291C0.396,-0.264 0.406,-0.23 0.406,-0.191C0.406,-0.153 0.397,-0.119 0.379,-0.088C0.361,-0.058 0.338,-0.034 0.308,-0.017C0.278,0.001 0.246,0.01 0.209,0.01Z" style="fill:rgb(189,31,67);fill-rule:nonzero;"/>
        </g>
        <g transform="matrix(200,0,0,200,1030.88,1165.23)">
            <path d="M0.253,-0L0.14,-0C0.137,-0 0.136,-0.002 0.136,-0.005L0.136,-0.575L0.006,-0.575C0.003,-0.575 0.001,-0.577 0.001,-0.58L0.002,-0.692C0.002,-0.694 0.003,-0.696 0.006,-0.696L0.386,-0.696C0.389,-0.696 0.391,-0.694 0.391,-0.692L0.391,-0.58C0.391,-0.577 0.39,-0.575 0.387,-0.575L0.256,-0.575L0.257,-0.005C0.257,-0.002 0.256,-0 0.253,-0Z" style="fill:rgb(189,31,67);fill-rule:nonzero;"/>
        </g>
        <g transform="matrix(200,0,0,200,1110.86,1165.23)">
            <path d="M0.158,-0L0.044,-0C0.041,-0 0.04,-0.002 0.04,-0.005L0.041,-0.692C0.041,-0.694 0.042,-0.696 0.044,-0.696L0.157,-0.696C0.159,-0.696 0.161,-0.694 0.161,-0.692L0.162,-0.005C0.162,-0.002 0.16,-0 0.158,-0Z" style="fill:rgb(189,31,67);fill-rule:nonzero;"/>
        </g>
        <g transform="matrix(200,0,0,200,1152.85,1165.23)">
            <path d="M0.273,-0L0.152,-0C0.149,-0 0.147,-0.002 0.147,-0.005L0.009,-0.692C0.008,-0.694 0.009,-0.696 0.013,-0.696L0.126,-0.696C0.129,-0.696 0.13,-0.694 0.131,-0.692L0.213,-0.234L0.293,-0.692C0.294,-0.694 0.295,-0.696 0.298,-0.696L0.41,-0.696C0.413,-0.696 0.415,-0.694 0.414,-0.692L0.278,-0.005C0.278,-0.002 0.276,-0 0.273,-0Z" style="fill:rgb(189,31,67);fill-rule:nonzero;"/>
        </g>
        <g transform="matrix(200,0,0,200,1239.38,1165.23)">
            <path d="M0.006,-0.005L0.13,-0.692C0.131,-0.694 0.132,-0.696 0.135,-0.696L0.28,-0.696C0.282,-0.696 0.284,-0.694 0.285,-0.692L0.404,-0.005C0.404,-0.002 0.403,-0 0.4,-0L0.289,-0C0.286,-0 0.284,-0.002 0.284,-0.005L0.273,-0.078L0.137,-0.078L0.126,-0.005C0.126,-0.002 0.124,-0 0.121,-0L0.01,-0C0.007,-0 0.006,-0.002 0.006,-0.005ZM0.212,-0.466L0.206,-0.503L0.202,-0.466L0.157,-0.185L0.253,-0.185L0.212,-0.466Z" style="fill:rgb(189,31,67);fill-rule:nonzero;"/>
        </g>
        <g transform="matrix(200,0,0,200,1324.73,1165.23)">
            <path d="M0.367,-0L0.043,-0C0.041,-0 0.04,-0.002 0.04,-0.005L0.041,-0.691C0.041,-0.694 0.042,-0.696 0.045,-0.696L0.157,-0.696C0.16,-0.696 0.162,-0.694 0.162,-0.691L0.161,-0.123L0.367,-0.123C0.37,-0.123 0.372,-0.121 0.372,-0.118L0.372,-0.005C0.372,-0.002 0.37,-0 0.367,-0Z" style="fill:rgb(189,31,67);fill-rule:nonzero;"/>
        </g>
    </g>
    <g transform="matrix(0.586459,0,0,0.548011,-512.506,-761.18)">
        <g transform="matrix(287.557,0,0,287.557,867.862,1561.52)">
            <path d="M0.357,0.043C0.336,0.043 0.319,0.039 0.304,0.03C0.289,0.021 0.281,0.007 0.281,-0.014C0.281,-0.039 0.288,-0.071 0.301,-0.11C0.314,-0.149 0.336,-0.194 0.365,-0.247C0.386,-0.284 0.407,-0.32 0.428,-0.353C0.449,-0.386 0.473,-0.42 0.5,-0.455L0.319,-0.412C0.285,-0.404 0.252,-0.398 0.221,-0.395C0.19,-0.392 0.16,-0.39 0.131,-0.39C0.093,-0.39 0.065,-0.395 0.048,-0.406C0.03,-0.416 0.021,-0.429 0.021,-0.444C0.021,-0.453 0.025,-0.463 0.034,-0.474C0.046,-0.489 0.062,-0.502 0.082,-0.513C0.102,-0.524 0.128,-0.534 0.159,-0.542C0.184,-0.549 0.211,-0.554 0.24,-0.557C0.269,-0.56 0.296,-0.562 0.323,-0.562C0.348,-0.562 0.369,-0.561 0.386,-0.56C0.403,-0.558 0.416,-0.555 0.427,-0.552C0.436,-0.549 0.441,-0.545 0.441,-0.54C0.441,-0.535 0.437,-0.534 0.43,-0.535C0.429,-0.535 0.42,-0.537 0.402,-0.54C0.384,-0.543 0.357,-0.544 0.322,-0.543C0.205,-0.538 0.127,-0.517 0.087,-0.479C0.078,-0.47 0.073,-0.463 0.073,-0.457C0.073,-0.448 0.081,-0.443 0.097,-0.44C0.113,-0.437 0.132,-0.436 0.155,-0.436C0.178,-0.436 0.209,-0.439 0.248,-0.446C0.286,-0.452 0.326,-0.459 0.368,-0.468C0.391,-0.473 0.41,-0.477 0.427,-0.48C0.444,-0.483 0.46,-0.487 0.477,-0.49C0.494,-0.493 0.513,-0.497 0.535,-0.502C0.537,-0.505 0.541,-0.509 0.547,-0.516C0.552,-0.523 0.556,-0.527 0.559,-0.53C0.564,-0.535 0.574,-0.538 0.589,-0.541C0.604,-0.544 0.62,-0.545 0.636,-0.545C0.647,-0.545 0.652,-0.543 0.652,-0.54C0.652,-0.539 0.645,-0.53 0.631,-0.515C0.656,-0.518 0.679,-0.521 0.7,-0.523C0.721,-0.525 0.742,-0.526 0.764,-0.526C0.786,-0.526 0.81,-0.524 0.835,-0.52C0.86,-0.515 0.884,-0.509 0.907,-0.5C0.93,-0.491 0.948,-0.479 0.963,-0.465C0.977,-0.45 0.984,-0.433 0.984,-0.414C0.984,-0.403 0.98,-0.398 0.972,-0.398C0.967,-0.398 0.964,-0.401 0.963,-0.407C0.962,-0.412 0.96,-0.417 0.958,-0.422C0.956,-0.427 0.954,-0.43 0.953,-0.433C0.942,-0.45 0.925,-0.463 0.903,-0.471C0.881,-0.479 0.858,-0.484 0.833,-0.487C0.808,-0.49 0.786,-0.491 0.766,-0.491C0.739,-0.491 0.712,-0.49 0.685,-0.487C0.658,-0.484 0.627,-0.479 0.592,-0.473C0.561,-0.438 0.533,-0.402 0.508,-0.367C0.482,-0.332 0.457,-0.295 0.434,-0.258C0.373,-0.159 0.343,-0.079 0.343,-0.016C0.343,0.01 0.348,0.023 0.359,0.023C0.362,0.023 0.366,0.022 0.373,0.02C0.379,0.018 0.385,0.015 0.391,0.012C0.405,0.004 0.412,-0 0.413,-0C0.42,-0 0.424,0.003 0.424,0.009C0.424,0.017 0.416,0.024 0.399,0.031C0.381,0.039 0.367,0.043 0.357,0.043Z" style="fill:rgb(253,250,239);fill-rule:nonzero;"/>
        </g>
        <g transform="matrix(287.557,0,0,287.557,1034.07,1561.52)">
            <path d="M0.292,0.003C0.271,0.003 0.255,-0.002 0.244,-0.013C0.233,-0.023 0.227,-0.036 0.224,-0.052C0.221,-0.068 0.219,-0.084 0.22,-0.1C0.21,-0.087 0.198,-0.072 0.183,-0.057C0.168,-0.041 0.152,-0.027 0.135,-0.016C0.118,-0.005 0.1,0.001 0.082,0.001C0.069,0.001 0.058,-0.002 0.049,-0.009C0.04,-0.015 0.036,-0.025 0.036,-0.039C0.036,-0.062 0.044,-0.087 0.059,-0.113C0.074,-0.139 0.093,-0.164 0.116,-0.188C0.139,-0.211 0.164,-0.23 0.191,-0.245C0.218,-0.26 0.243,-0.267 0.266,-0.267C0.273,-0.267 0.282,-0.266 0.294,-0.263C0.306,-0.26 0.317,-0.256 0.327,-0.251C0.336,-0.246 0.341,-0.238 0.341,-0.229C0.341,-0.224 0.338,-0.222 0.332,-0.221C0.326,-0.22 0.322,-0.218 0.319,-0.215C0.3,-0.192 0.29,-0.154 0.29,-0.102C0.29,-0.095 0.29,-0.086 0.291,-0.075C0.292,-0.064 0.294,-0.054 0.299,-0.045C0.303,-0.036 0.31,-0.032 0.319,-0.032C0.333,-0.032 0.348,-0.038 0.364,-0.05C0.38,-0.062 0.396,-0.077 0.412,-0.094C0.428,-0.111 0.443,-0.126 0.456,-0.14C0.457,-0.142 0.459,-0.143 0.46,-0.143C0.463,-0.143 0.466,-0.141 0.469,-0.138C0.471,-0.134 0.471,-0.131 0.468,-0.128C0.452,-0.109 0.436,-0.093 0.422,-0.078C0.407,-0.063 0.391,-0.049 0.375,-0.036C0.344,-0.01 0.317,0.003 0.292,0.003ZM0.136,-0.045C0.151,-0.054 0.167,-0.067 0.183,-0.086C0.198,-0.105 0.213,-0.126 0.228,-0.15C0.242,-0.174 0.254,-0.198 0.264,-0.222C0.248,-0.222 0.23,-0.216 0.21,-0.205C0.19,-0.193 0.171,-0.178 0.153,-0.161C0.135,-0.143 0.12,-0.125 0.109,-0.106C0.097,-0.087 0.091,-0.069 0.091,-0.054C0.091,-0.041 0.096,-0.035 0.106,-0.035C0.113,-0.035 0.123,-0.038 0.136,-0.045Z" style="fill:rgb(253,250,239);fill-rule:nonzero;"/>
        </g>
        <g transform="matrix(287.557,0,0,287.557,1141.9,1561.52)">
            <path d="M0.254,0.007C0.202,0.007 0.176,-0.019 0.176,-0.071C0.176,-0.087 0.18,-0.106 0.188,-0.128C0.195,-0.149 0.203,-0.168 0.212,-0.183C0.175,-0.154 0.145,-0.127 0.122,-0.102C0.099,-0.076 0.083,-0.057 0.073,-0.045C0.07,-0.042 0.067,-0.037 0.063,-0.029C0.059,-0.02 0.054,-0.012 0.049,-0.006C0.044,0.002 0.038,0.005 0.031,0.005C0.024,0.005 0.02,0.002 0.017,-0.003C0.014,-0.008 0.013,-0.014 0.013,-0.019C0.013,-0.022 0.014,-0.026 0.016,-0.03C0.025,-0.045 0.035,-0.069 0.047,-0.101C0.058,-0.132 0.068,-0.164 0.075,-0.197C0.076,-0.202 0.078,-0.207 0.079,-0.21C0.08,-0.213 0.081,-0.217 0.083,-0.221C0.086,-0.228 0.093,-0.234 0.105,-0.239C0.115,-0.244 0.124,-0.246 0.131,-0.246C0.134,-0.246 0.138,-0.245 0.142,-0.244C0.145,-0.242 0.147,-0.239 0.147,-0.234C0.147,-0.231 0.145,-0.223 0.141,-0.212C0.137,-0.201 0.132,-0.188 0.127,-0.174C0.121,-0.16 0.116,-0.147 0.111,-0.135C0.106,-0.122 0.102,-0.114 0.1,-0.109C0.105,-0.114 0.114,-0.122 0.125,-0.133C0.136,-0.143 0.149,-0.156 0.164,-0.169C0.178,-0.182 0.192,-0.194 0.207,-0.206C0.222,-0.218 0.235,-0.228 0.246,-0.236C0.257,-0.244 0.266,-0.248 0.271,-0.248C0.28,-0.248 0.289,-0.246 0.296,-0.242C0.303,-0.237 0.306,-0.23 0.306,-0.219C0.306,-0.214 0.302,-0.207 0.295,-0.196C0.288,-0.185 0.279,-0.173 0.269,-0.158C0.259,-0.143 0.25,-0.128 0.243,-0.111C0.236,-0.094 0.232,-0.078 0.232,-0.061C0.232,-0.049 0.235,-0.039 0.242,-0.031C0.248,-0.022 0.257,-0.018 0.268,-0.018C0.286,-0.018 0.303,-0.022 0.32,-0.031C0.337,-0.039 0.352,-0.049 0.366,-0.061C0.38,-0.073 0.392,-0.085 0.403,-0.097C0.414,-0.108 0.422,-0.117 0.428,-0.124C0.429,-0.125 0.429,-0.125 0.43,-0.125C0.431,-0.125 0.433,-0.124 0.435,-0.123C0.437,-0.121 0.438,-0.118 0.438,-0.115C0.438,-0.112 0.437,-0.109 0.434,-0.106C0.419,-0.088 0.402,-0.07 0.384,-0.053C0.365,-0.036 0.345,-0.021 0.324,-0.01C0.303,0.001 0.279,0.007 0.254,0.007Z" style="fill:rgb(253,250,239);fill-rule:nonzero;"/>
        </g>
        <g transform="matrix(287.557,0,0,287.557,1246,1561.52)">
            <path d="M-0.156,0.407C-0.178,0.407 -0.2,0.403 -0.223,0.396C-0.246,0.389 -0.265,0.377 -0.28,0.361C-0.295,0.344 -0.303,0.323 -0.303,0.298C-0.303,0.269 -0.294,0.242 -0.276,0.216C-0.258,0.19 -0.234,0.166 -0.205,0.144C-0.175,0.122 -0.142,0.102 -0.106,0.084C-0.069,0.066 -0.032,0.05 0.005,0.037C0.042,0.023 0.078,0.012 0.111,0.003C0.144,-0.006 0.173,-0.012 0.196,-0.015L0.215,-0.093C0.2,-0.074 0.183,-0.055 0.163,-0.037C0.143,-0.019 0.12,-0.01 0.093,-0.01C0.08,-0.01 0.07,-0.015 0.063,-0.025C0.055,-0.035 0.051,-0.047 0.051,-0.061C0.051,-0.084 0.058,-0.108 0.072,-0.132C0.085,-0.156 0.103,-0.178 0.125,-0.199C0.146,-0.219 0.169,-0.235 0.195,-0.248C0.22,-0.261 0.244,-0.267 0.267,-0.267C0.273,-0.267 0.282,-0.266 0.294,-0.263C0.305,-0.26 0.316,-0.255 0.326,-0.25C0.335,-0.245 0.34,-0.238 0.34,-0.23C0.338,-0.225 0.335,-0.221 0.33,-0.219C0.325,-0.216 0.319,-0.214 0.314,-0.213C0.305,-0.18 0.296,-0.148 0.287,-0.115C0.278,-0.082 0.268,-0.049 0.259,-0.016C0.266,-0.016 0.275,-0.016 0.286,-0.015C0.297,-0.014 0.306,-0.011 0.315,-0.007C0.324,-0.003 0.328,0.004 0.328,0.013C0.328,0.016 0.327,0.018 0.325,0.018C0.324,0.018 0.323,0.018 0.322,0.018C0.321,0.017 0.319,0.017 0.317,0.017C0.304,0.01 0.289,0.007 0.274,0.007L0.264,0.007C0.261,0.007 0.257,0.007 0.254,0.008C0.24,0.053 0.221,0.098 0.196,0.146C0.171,0.193 0.142,0.236 0.107,0.275C0.072,0.314 0.033,0.346 -0.011,0.371C-0.054,0.395 -0.103,0.407 -0.156,0.407ZM0.139,-0.045C0.154,-0.054 0.17,-0.067 0.186,-0.086C0.201,-0.105 0.216,-0.126 0.231,-0.15C0.245,-0.174 0.257,-0.198 0.267,-0.222C0.251,-0.222 0.233,-0.216 0.213,-0.205C0.193,-0.193 0.174,-0.178 0.156,-0.161C0.138,-0.143 0.123,-0.125 0.112,-0.106C0.1,-0.087 0.094,-0.069 0.094,-0.054C0.094,-0.041 0.099,-0.035 0.109,-0.035C0.116,-0.035 0.126,-0.038 0.139,-0.045ZM-0.145,0.386C-0.108,0.386 -0.074,0.378 -0.043,0.362C-0.012,0.346 0.017,0.325 0.043,0.298C0.068,0.271 0.091,0.242 0.111,0.209C0.131,0.176 0.148,0.143 0.162,0.108C0.176,0.073 0.187,0.04 0.194,0.009C0.174,0.012 0.149,0.017 0.12,0.026C0.09,0.034 0.058,0.045 0.025,0.058C-0.008,0.07 -0.041,0.085 -0.074,0.102C-0.107,0.119 -0.136,0.137 -0.163,0.158C-0.19,0.178 -0.211,0.199 -0.227,0.222C-0.243,0.245 -0.251,0.268 -0.251,0.293L-0.251,0.309C-0.251,0.325 -0.246,0.339 -0.235,0.351C-0.224,0.362 -0.21,0.371 -0.194,0.377C-0.177,0.383 -0.161,0.386 -0.145,0.386Z" style="fill:rgb(253,250,239);fill-rule:nonzero;"/>
        </g>
        <g transform="matrix(287.557,0,0,287.557,1336.87,1561.52)">
            <path d="M0.264,-0.168C0.261,-0.16 0.258,-0.152 0.255,-0.144C0.251,-0.135 0.247,-0.127 0.243,-0.119C0.251,-0.12 0.259,-0.122 0.267,-0.124C0.275,-0.125 0.283,-0.127 0.291,-0.13C0.322,-0.141 0.348,-0.157 0.371,-0.178C0.393,-0.198 0.41,-0.221 0.423,-0.246C0.436,-0.271 0.442,-0.297 0.442,-0.322C0.442,-0.345 0.436,-0.367 0.423,-0.386C0.41,-0.405 0.389,-0.414 0.359,-0.414C0.35,-0.414 0.34,-0.413 0.329,-0.411L0.328,-0.411C0.324,-0.411 0.322,-0.413 0.322,-0.417C0.322,-0.42 0.324,-0.423 0.329,-0.425C0.34,-0.427 0.351,-0.428 0.361,-0.428C0.399,-0.428 0.427,-0.415 0.445,-0.39C0.462,-0.364 0.471,-0.334 0.471,-0.301C0.471,-0.276 0.463,-0.252 0.448,-0.228C0.433,-0.204 0.412,-0.183 0.386,-0.164C0.36,-0.145 0.331,-0.129 0.298,-0.118C0.288,-0.115 0.278,-0.112 0.268,-0.111C0.257,-0.11 0.247,-0.109 0.237,-0.108C0.226,-0.089 0.214,-0.071 0.2,-0.053C0.186,-0.034 0.17,-0.019 0.152,-0.007C0.133,0.005 0.112,0.012 0.088,0.013C0.073,0.013 0.061,0.009 0.05,0.001C0.039,-0.007 0.034,-0.018 0.034,-0.031C0.034,-0.068 0.055,-0.113 0.098,-0.165C0.097,-0.168 0.097,-0.172 0.096,-0.176C0.095,-0.18 0.095,-0.184 0.095,-0.187C0.095,-0.199 0.097,-0.211 0.1,-0.222C0.103,-0.233 0.11,-0.244 0.121,-0.255C0.131,-0.266 0.143,-0.275 0.158,-0.282C0.172,-0.288 0.186,-0.291 0.201,-0.291C0.224,-0.291 0.24,-0.286 0.251,-0.275C0.261,-0.264 0.267,-0.251 0.269,-0.236C0.269,-0.236 0.269,-0.234 0.27,-0.231C0.271,-0.227 0.271,-0.221 0.271,-0.214C0.271,-0.208 0.271,-0.201 0.27,-0.194C0.269,-0.186 0.267,-0.177 0.264,-0.168ZM0.224,-0.194C0.224,-0.212 0.221,-0.229 0.214,-0.245C0.207,-0.26 0.198,-0.268 0.185,-0.268C0.168,-0.268 0.155,-0.259 0.145,-0.24C0.138,-0.227 0.135,-0.213 0.135,-0.198L0.135,-0.192C0.148,-0.205 0.159,-0.211 0.17,-0.211C0.181,-0.211 0.189,-0.208 0.195,-0.201C0.197,-0.198 0.198,-0.196 0.198,-0.194C0.198,-0.19 0.194,-0.188 0.185,-0.188C0.178,-0.188 0.171,-0.185 0.165,-0.178C0.158,-0.171 0.151,-0.161 0.144,-0.15C0.149,-0.141 0.157,-0.134 0.168,-0.128C0.179,-0.122 0.192,-0.119 0.206,-0.118C0.216,-0.143 0.222,-0.165 0.224,-0.186L0.224,-0.194ZM0.124,-0.125C0.101,-0.082 0.089,-0.052 0.089,-0.034C0.089,-0.021 0.095,-0.014 0.106,-0.014C0.117,-0.014 0.131,-0.022 0.15,-0.038C0.161,-0.047 0.171,-0.058 0.18,-0.071C0.188,-0.083 0.195,-0.095 0.202,-0.108C0.185,-0.109 0.171,-0.112 0.158,-0.116C0.145,-0.119 0.136,-0.125 0.129,-0.133L0.124,-0.125Z" style="fill:rgb(253,250,239);fill-rule:nonzero;"/>
        </g>
        <g transform="matrix(287.557,0,0,287.557,1507.96,1561.52)">
            <path d="M0.255,0.058C0.24,0.058 0.222,0.057 0.201,0.055C0.179,0.052 0.156,0.048 0.132,0.043C0.108,0.037 0.086,0.029 0.065,0.02C0.044,0.011 0.027,-0.001 0.014,-0.015C0.001,-0.029 -0.006,-0.046 -0.006,-0.065C-0.006,-0.092 0.002,-0.116 0.018,-0.135C0.034,-0.154 0.055,-0.17 0.08,-0.182C0.105,-0.194 0.131,-0.203 0.158,-0.21C0.185,-0.216 0.209,-0.22 0.231,-0.221C0.246,-0.25 0.264,-0.281 0.283,-0.316C0.302,-0.35 0.323,-0.383 0.345,-0.416C0.366,-0.449 0.388,-0.476 0.409,-0.499C0.418,-0.509 0.429,-0.516 0.441,-0.519C0.452,-0.522 0.465,-0.523 0.478,-0.523C0.483,-0.523 0.488,-0.522 0.493,-0.521C0.498,-0.519 0.501,-0.515 0.502,-0.509C0.501,-0.503 0.497,-0.497 0.491,-0.49C0.484,-0.483 0.479,-0.478 0.475,-0.474C0.444,-0.44 0.413,-0.401 0.38,-0.356C0.347,-0.311 0.317,-0.266 0.289,-0.221C0.334,-0.22 0.38,-0.217 0.428,-0.211C0.475,-0.205 0.522,-0.195 0.567,-0.182C0.612,-0.168 0.654,-0.148 0.691,-0.123C0.7,-0.132 0.707,-0.143 0.714,-0.155C0.721,-0.167 0.724,-0.18 0.724,-0.193C0.724,-0.212 0.717,-0.229 0.703,-0.243C0.689,-0.257 0.671,-0.269 0.649,-0.278C0.627,-0.286 0.604,-0.294 0.579,-0.299C0.554,-0.304 0.53,-0.308 0.508,-0.31C0.485,-0.312 0.467,-0.313 0.453,-0.313C0.449,-0.313 0.443,-0.313 0.435,-0.313C0.426,-0.312 0.419,-0.313 0.412,-0.315C0.405,-0.317 0.402,-0.321 0.402,-0.328C0.402,-0.339 0.407,-0.346 0.417,-0.35C0.426,-0.353 0.435,-0.356 0.443,-0.357C0.474,-0.363 0.506,-0.368 0.538,-0.373C0.57,-0.377 0.601,-0.384 0.632,-0.394C0.663,-0.403 0.691,-0.418 0.717,-0.439C0.722,-0.443 0.728,-0.448 0.735,-0.454C0.741,-0.46 0.744,-0.466 0.744,-0.473C0.744,-0.484 0.736,-0.494 0.719,-0.502C0.702,-0.509 0.68,-0.515 0.654,-0.52C0.628,-0.525 0.601,-0.528 0.574,-0.531C0.546,-0.533 0.521,-0.534 0.499,-0.535C0.477,-0.536 0.462,-0.536 0.453,-0.536C0.396,-0.536 0.343,-0.532 0.295,-0.524C0.245,-0.516 0.193,-0.505 0.138,-0.491C0.132,-0.49 0.123,-0.487 0.11,-0.483C0.097,-0.478 0.085,-0.474 0.074,-0.471C0.062,-0.468 0.054,-0.466 0.05,-0.466C0.045,-0.466 0.041,-0.467 0.038,-0.47C0.035,-0.472 0.033,-0.475 0.033,-0.48C0.033,-0.494 0.041,-0.506 0.057,-0.517C0.072,-0.527 0.093,-0.536 0.118,-0.543C0.143,-0.55 0.171,-0.555 0.201,-0.559C0.231,-0.563 0.261,-0.566 0.29,-0.569C0.319,-0.571 0.344,-0.572 0.367,-0.573C0.39,-0.574 0.406,-0.574 0.416,-0.574C0.428,-0.574 0.446,-0.574 0.469,-0.573C0.492,-0.572 0.518,-0.57 0.547,-0.567C0.576,-0.564 0.605,-0.56 0.635,-0.555C0.664,-0.55 0.692,-0.543 0.717,-0.535C0.742,-0.527 0.763,-0.517 0.778,-0.506C0.793,-0.494 0.801,-0.48 0.801,-0.464C0.801,-0.449 0.795,-0.435 0.782,-0.422C0.769,-0.409 0.752,-0.398 0.731,-0.388C0.71,-0.377 0.687,-0.368 0.664,-0.361C0.641,-0.354 0.619,-0.348 0.598,-0.344C0.577,-0.339 0.56,-0.336 0.547,-0.335C0.57,-0.333 0.595,-0.329 0.623,-0.322C0.651,-0.315 0.678,-0.305 0.704,-0.293C0.73,-0.28 0.751,-0.265 0.768,-0.248C0.785,-0.231 0.793,-0.211 0.793,-0.189C0.793,-0.168 0.787,-0.149 0.775,-0.132C0.762,-0.115 0.749,-0.099 0.735,-0.086C0.74,-0.081 0.747,-0.072 0.755,-0.059C0.762,-0.046 0.766,-0.036 0.766,-0.028C0.766,-0.023 0.765,-0.019 0.764,-0.016C0.762,-0.013 0.76,-0.011 0.757,-0.011C0.754,-0.011 0.752,-0.013 0.75,-0.016C0.744,-0.025 0.737,-0.035 0.73,-0.044C0.723,-0.053 0.716,-0.061 0.711,-0.066C0.671,-0.037 0.625,-0.013 0.572,0.006C0.519,0.024 0.466,0.037 0.411,0.046C0.356,0.054 0.304,0.058 0.255,0.058ZM0.255,0.034C0.302,0.034 0.35,0.03 0.401,0.021C0.451,0.012 0.5,-0.002 0.548,-0.021C0.595,-0.04 0.637,-0.066 0.674,-0.098C0.629,-0.128 0.576,-0.15 0.515,-0.165C0.454,-0.179 0.39,-0.186 0.325,-0.186L0.303,-0.186C0.295,-0.186 0.287,-0.186 0.28,-0.185L0.267,-0.184C0.256,-0.165 0.245,-0.144 0.234,-0.122C0.223,-0.1 0.215,-0.079 0.208,-0.058C0.201,-0.037 0.197,-0.019 0.197,-0.003C0.197,0.002 0.196,0.009 0.193,0.016C0.19,0.023 0.185,0.026 0.18,0.026C0.205,0.031 0.23,0.034 0.255,0.034ZM0.162,0.021C0.157,0.018 0.154,0.012 0.153,0.004C0.151,-0.005 0.15,-0.012 0.15,-0.017C0.15,-0.032 0.154,-0.049 0.161,-0.069C0.168,-0.089 0.176,-0.109 0.185,-0.129C0.194,-0.148 0.202,-0.165 0.209,-0.178C0.188,-0.175 0.166,-0.169 0.143,-0.16C0.12,-0.151 0.101,-0.139 0.086,-0.123C0.071,-0.106 0.063,-0.084 0.063,-0.057C0.063,-0.042 0.069,-0.029 0.081,-0.019C0.092,-0.008 0.106,0 0.122,0.007C0.137,0.013 0.151,0.018 0.162,0.021Z" style="fill:rgb(253,250,239);fill-rule:nonzero;"/>
        </g>
        <g transform="matrix(287.557,0,0,287.557,1732.26,1561.52)">
            <path d="M0.276,0.015C0.255,0.015 0.239,0.008 0.228,-0.005C0.217,-0.018 0.211,-0.035 0.211,-0.056C0.211,-0.065 0.212,-0.076 0.215,-0.087C0.218,-0.098 0.222,-0.109 0.228,-0.12C0.221,-0.113 0.213,-0.103 0.203,-0.091C0.193,-0.079 0.182,-0.067 0.171,-0.055C0.159,-0.043 0.147,-0.033 0.135,-0.025C0.122,-0.017 0.111,-0.013 0.1,-0.013C0.081,-0.013 0.069,-0.019 0.063,-0.032C0.056,-0.045 0.053,-0.059 0.053,-0.075C0.053,-0.086 0.055,-0.099 0.061,-0.114C0.066,-0.129 0.072,-0.144 0.081,-0.159C0.09,-0.174 0.1,-0.186 0.111,-0.196C0.122,-0.205 0.134,-0.21 0.147,-0.21C0.152,-0.21 0.157,-0.209 0.164,-0.207C0.17,-0.205 0.173,-0.201 0.173,-0.196C0.173,-0.193 0.17,-0.188 0.164,-0.179C0.157,-0.169 0.15,-0.159 0.142,-0.148C0.133,-0.137 0.126,-0.125 0.12,-0.114C0.113,-0.102 0.11,-0.091 0.11,-0.082C0.11,-0.076 0.111,-0.07 0.113,-0.065C0.114,-0.059 0.119,-0.056 0.126,-0.056C0.139,-0.056 0.153,-0.063 0.167,-0.076C0.18,-0.089 0.194,-0.105 0.208,-0.124C0.222,-0.143 0.236,-0.163 0.249,-0.182C0.262,-0.2 0.274,-0.217 0.285,-0.23C0.296,-0.243 0.305,-0.249 0.313,-0.249C0.322,-0.249 0.331,-0.246 0.339,-0.24C0.346,-0.233 0.35,-0.225 0.35,-0.216C0.341,-0.203 0.33,-0.186 0.316,-0.165C0.302,-0.143 0.29,-0.122 0.279,-0.101C0.268,-0.08 0.262,-0.061 0.262,-0.046C0.262,-0.032 0.265,-0.022 0.272,-0.017C0.278,-0.012 0.285,-0.009 0.294,-0.009C0.303,-0.009 0.313,-0.011 0.324,-0.016C0.335,-0.021 0.345,-0.025 0.354,-0.03C0.379,-0.045 0.402,-0.063 0.423,-0.085C0.444,-0.107 0.463,-0.126 0.478,-0.141C0.48,-0.143 0.482,-0.144 0.484,-0.144C0.487,-0.144 0.489,-0.141 0.489,-0.136C0.489,-0.131 0.487,-0.126 0.483,-0.121C0.47,-0.106 0.452,-0.088 0.43,-0.068C0.407,-0.047 0.384,-0.029 0.361,-0.014C0.348,-0.006 0.335,0.001 0.32,0.007C0.305,0.012 0.291,0.015 0.276,0.015Z" style="fill:rgb(253,250,239);fill-rule:nonzero;"/>
        </g>
        <g transform="matrix(287.557,0,0,287.557,1846.13,1561.52)">
            <path d="M0.154,0.005C0.125,0.005 0.102,-0.002 0.084,-0.015C0.065,-0.028 0.056,-0.049 0.056,-0.08C0.056,-0.1 0.063,-0.12 0.077,-0.141C0.09,-0.161 0.108,-0.18 0.129,-0.197C0.15,-0.214 0.171,-0.227 0.195,-0.238C0.218,-0.248 0.238,-0.253 0.257,-0.253C0.268,-0.253 0.278,-0.251 0.288,-0.248C0.298,-0.244 0.303,-0.235 0.303,-0.222C0.303,-0.216 0.301,-0.209 0.296,-0.2C0.291,-0.191 0.284,-0.182 0.277,-0.175C0.27,-0.168 0.262,-0.164 0.255,-0.164C0.248,-0.164 0.244,-0.168 0.244,-0.177C0.244,-0.182 0.245,-0.187 0.248,-0.192C0.251,-0.197 0.252,-0.201 0.252,-0.206C0.252,-0.215 0.249,-0.22 0.243,-0.222C0.237,-0.223 0.231,-0.224 0.226,-0.224C0.207,-0.224 0.189,-0.217 0.172,-0.202C0.155,-0.187 0.14,-0.169 0.13,-0.148C0.119,-0.127 0.113,-0.108 0.113,-0.089C0.113,-0.046 0.131,-0.024 0.168,-0.024C0.198,-0.024 0.225,-0.03 0.249,-0.041C0.273,-0.052 0.294,-0.066 0.312,-0.081C0.329,-0.096 0.343,-0.109 0.354,-0.12C0.364,-0.131 0.37,-0.137 0.372,-0.137C0.378,-0.137 0.381,-0.135 0.381,-0.131C0.381,-0.128 0.38,-0.125 0.378,-0.122C0.377,-0.121 0.375,-0.118 0.372,-0.114C0.368,-0.109 0.364,-0.105 0.361,-0.102C0.328,-0.071 0.295,-0.046 0.262,-0.026C0.228,-0.005 0.192,0.005 0.154,0.005Z" style="fill:rgb(253,250,239);fill-rule:nonzero;"/>
        </g>
        <g transform="matrix(287.557,0,0,287.557,1929.81,1561.52)">
            <path d="M0.084,0.013C0.069,0.013 0.056,0.009 0.048,0.002C0.039,-0.006 0.034,-0.018 0.034,-0.034C0.034,-0.059 0.041,-0.084 0.054,-0.107C0.066,-0.13 0.08,-0.15 0.095,-0.169C0.094,-0.172 0.094,-0.176 0.094,-0.18C0.093,-0.183 0.093,-0.187 0.093,-0.19C0.093,-0.209 0.098,-0.227 0.109,-0.244C0.119,-0.261 0.132,-0.274 0.15,-0.285C0.167,-0.295 0.184,-0.3 0.203,-0.3C0.226,-0.3 0.244,-0.294 0.256,-0.281C0.267,-0.268 0.273,-0.249 0.273,-0.226C0.273,-0.201 0.267,-0.176 0.256,-0.151C0.244,-0.125 0.232,-0.102 0.219,-0.081C0.222,-0.079 0.228,-0.077 0.235,-0.075C0.242,-0.073 0.248,-0.072 0.253,-0.072C0.276,-0.072 0.297,-0.076 0.314,-0.085C0.331,-0.093 0.351,-0.108 0.374,-0.129C0.377,-0.132 0.38,-0.134 0.382,-0.134C0.385,-0.134 0.386,-0.132 0.386,-0.127C0.386,-0.122 0.384,-0.116 0.379,-0.111C0.364,-0.093 0.345,-0.078 0.321,-0.067C0.297,-0.056 0.274,-0.05 0.251,-0.05C0.243,-0.05 0.235,-0.051 0.227,-0.052C0.219,-0.053 0.211,-0.055 0.204,-0.058C0.189,-0.039 0.172,-0.023 0.152,-0.009C0.132,0.006 0.109,0.013 0.084,0.013ZM0.192,-0.094C0.2,-0.11 0.207,-0.128 0.213,-0.149C0.219,-0.17 0.223,-0.191 0.224,-0.212C0.225,-0.223 0.223,-0.235 0.217,-0.247C0.21,-0.259 0.199,-0.265 0.184,-0.265C0.169,-0.265 0.157,-0.26 0.148,-0.249C0.138,-0.238 0.132,-0.224 0.13,-0.207C0.135,-0.21 0.141,-0.213 0.149,-0.216C0.156,-0.219 0.163,-0.22 0.168,-0.22C0.177,-0.22 0.184,-0.218 0.189,-0.214C0.194,-0.209 0.197,-0.204 0.197,-0.199C0.197,-0.192 0.193,-0.188 0.184,-0.185C0.176,-0.182 0.168,-0.177 0.159,-0.17C0.15,-0.163 0.143,-0.156 0.139,-0.15C0.144,-0.139 0.152,-0.129 0.162,-0.119C0.172,-0.109 0.182,-0.101 0.192,-0.094ZM0.108,-0.016C0.115,-0.016 0.123,-0.02 0.133,-0.027C0.143,-0.033 0.153,-0.041 0.162,-0.05C0.171,-0.059 0.177,-0.066 0.181,-0.071C0.172,-0.076 0.161,-0.085 0.148,-0.097C0.134,-0.109 0.124,-0.119 0.117,-0.128C0.113,-0.123 0.109,-0.115 0.104,-0.105C0.099,-0.093 0.095,-0.082 0.092,-0.07C0.089,-0.058 0.087,-0.048 0.087,-0.04C0.087,-0.024 0.094,-0.016 0.108,-0.016ZM0.2,-0.331C0.194,-0.331 0.191,-0.333 0.191,-0.338C0.191,-0.341 0.192,-0.343 0.195,-0.346C0.21,-0.361 0.224,-0.374 0.237,-0.385C0.25,-0.396 0.265,-0.407 0.282,-0.42C0.29,-0.426 0.297,-0.429 0.302,-0.429C0.305,-0.429 0.308,-0.427 0.311,-0.422C0.314,-0.417 0.315,-0.412 0.315,-0.405C0.315,-0.401 0.314,-0.398 0.312,-0.395C0.309,-0.392 0.307,-0.389 0.306,-0.388C0.304,-0.386 0.298,-0.382 0.288,-0.376C0.278,-0.37 0.267,-0.364 0.255,-0.357C0.242,-0.349 0.231,-0.343 0.221,-0.339C0.21,-0.334 0.203,-0.331 0.2,-0.331Z" style="fill:rgb(253,250,239);fill-rule:nonzero;"/>
        </g>
        <g transform="matrix(287.557,0,0,287.557,2016.37,1561.52)">
            <path d="M0.142,0.014C0.11,0.014 0.087,0.003 0.072,-0.018C0.057,-0.039 0.05,-0.064 0.05,-0.093C0.05,-0.116 0.057,-0.144 0.07,-0.177C0.083,-0.21 0.101,-0.246 0.124,-0.285C0.146,-0.323 0.171,-0.361 0.2,-0.398C0.228,-0.435 0.257,-0.468 0.288,-0.499C0.318,-0.53 0.347,-0.554 0.377,-0.573C0.405,-0.591 0.432,-0.6 0.455,-0.6C0.466,-0.6 0.477,-0.595 0.488,-0.586C0.499,-0.577 0.504,-0.566 0.504,-0.554C0.504,-0.535 0.497,-0.513 0.482,-0.488C0.467,-0.463 0.448,-0.436 0.424,-0.407C0.4,-0.378 0.374,-0.349 0.345,-0.32C0.316,-0.291 0.286,-0.263 0.257,-0.236C0.227,-0.209 0.199,-0.185 0.174,-0.164C0.148,-0.142 0.127,-0.125 0.11,-0.112C0.109,-0.107 0.109,-0.101 0.109,-0.097C0.108,-0.091 0.108,-0.086 0.108,-0.081C0.108,-0.062 0.112,-0.047 0.119,-0.036C0.126,-0.025 0.14,-0.019 0.16,-0.019C0.181,-0.019 0.202,-0.024 0.223,-0.034C0.243,-0.044 0.262,-0.056 0.28,-0.071C0.298,-0.086 0.314,-0.1 0.328,-0.114C0.341,-0.127 0.352,-0.138 0.36,-0.146C0.361,-0.147 0.362,-0.147 0.363,-0.147C0.366,-0.147 0.368,-0.145 0.37,-0.142C0.371,-0.138 0.371,-0.135 0.37,-0.133C0.363,-0.124 0.354,-0.114 0.344,-0.103C0.333,-0.092 0.325,-0.084 0.319,-0.077C0.296,-0.054 0.27,-0.034 0.239,-0.015C0.208,0.005 0.176,0.014 0.142,0.014ZM0.112,-0.14C0.134,-0.155 0.16,-0.175 0.189,-0.203C0.218,-0.23 0.247,-0.26 0.278,-0.293C0.308,-0.326 0.336,-0.359 0.362,-0.393C0.387,-0.426 0.408,-0.458 0.424,-0.488C0.44,-0.517 0.448,-0.541 0.448,-0.56C0.448,-0.563 0.448,-0.567 0.447,-0.57C0.446,-0.573 0.443,-0.574 0.438,-0.574C0.425,-0.574 0.409,-0.567 0.391,-0.554C0.373,-0.54 0.354,-0.522 0.335,-0.501C0.316,-0.479 0.297,-0.456 0.279,-0.432C0.26,-0.408 0.244,-0.386 0.23,-0.365C0.216,-0.344 0.205,-0.328 0.198,-0.317C0.181,-0.289 0.164,-0.26 0.149,-0.23C0.134,-0.2 0.121,-0.17 0.112,-0.14Z" style="fill:rgb(253,250,239);fill-rule:nonzero;"/>
        </g>
        <g transform="matrix(287.557,0,0,287.557,2094.58,1561.52)">
            <path d="M0.197,-0.266C0.187,-0.266 0.179,-0.27 0.172,-0.277C0.165,-0.284 0.161,-0.292 0.161,-0.302C0.161,-0.312 0.165,-0.321 0.172,-0.328C0.179,-0.335 0.187,-0.339 0.197,-0.339C0.207,-0.339 0.216,-0.335 0.223,-0.328C0.23,-0.321 0.234,-0.312 0.234,-0.302C0.234,-0.292 0.23,-0.284 0.223,-0.277C0.216,-0.27 0.207,-0.266 0.197,-0.266ZM0.124,0.017C0.101,0.017 0.081,0.011 0.066,-0.002C0.05,-0.014 0.044,-0.034 0.047,-0.063C0.048,-0.072 0.052,-0.086 0.057,-0.103C0.062,-0.12 0.069,-0.137 0.078,-0.155C0.086,-0.172 0.095,-0.187 0.105,-0.2C0.115,-0.213 0.125,-0.219 0.135,-0.219C0.143,-0.219 0.151,-0.217 0.158,-0.212C0.165,-0.207 0.169,-0.2 0.169,-0.191C0.169,-0.186 0.166,-0.18 0.159,-0.172C0.152,-0.163 0.145,-0.153 0.136,-0.141C0.127,-0.128 0.119,-0.115 0.112,-0.1C0.105,-0.085 0.102,-0.068 0.102,-0.051C0.102,-0.035 0.106,-0.024 0.113,-0.019C0.119,-0.013 0.128,-0.01 0.138,-0.01C0.151,-0.01 0.164,-0.014 0.179,-0.021C0.194,-0.028 0.208,-0.036 0.223,-0.047C0.232,-0.053 0.245,-0.064 0.262,-0.08C0.279,-0.096 0.298,-0.116 0.321,-0.141C0.322,-0.142 0.324,-0.143 0.325,-0.143C0.33,-0.143 0.333,-0.139 0.333,-0.132C0.333,-0.13 0.329,-0.125 0.321,-0.116C0.313,-0.107 0.304,-0.096 0.293,-0.085C0.282,-0.074 0.271,-0.063 0.261,-0.054C0.251,-0.044 0.244,-0.037 0.239,-0.034C0.222,-0.021 0.204,-0.01 0.186,0.001C0.167,0.012 0.146,0.017 0.124,0.017Z" style="fill:rgb(253,250,239);fill-rule:nonzero;"/>
        </g>
        <g transform="matrix(287.557,0,0,287.557,2163.31,1561.52)">
            <path d="M0.154,0.005C0.125,0.005 0.102,-0.002 0.084,-0.015C0.065,-0.028 0.056,-0.049 0.056,-0.08C0.056,-0.1 0.063,-0.12 0.077,-0.141C0.09,-0.161 0.108,-0.18 0.129,-0.197C0.15,-0.214 0.171,-0.227 0.195,-0.238C0.218,-0.248 0.238,-0.253 0.257,-0.253C0.268,-0.253 0.278,-0.251 0.288,-0.248C0.298,-0.244 0.303,-0.235 0.303,-0.222C0.303,-0.216 0.301,-0.209 0.296,-0.2C0.291,-0.191 0.284,-0.182 0.277,-0.175C0.27,-0.168 0.262,-0.164 0.255,-0.164C0.248,-0.164 0.244,-0.168 0.244,-0.177C0.244,-0.182 0.245,-0.187 0.248,-0.192C0.251,-0.197 0.252,-0.201 0.252,-0.206C0.252,-0.215 0.249,-0.22 0.243,-0.222C0.237,-0.223 0.231,-0.224 0.226,-0.224C0.207,-0.224 0.189,-0.217 0.172,-0.202C0.155,-0.187 0.14,-0.169 0.13,-0.148C0.119,-0.127 0.113,-0.108 0.113,-0.089C0.113,-0.046 0.131,-0.024 0.168,-0.024C0.198,-0.024 0.225,-0.03 0.249,-0.041C0.273,-0.052 0.294,-0.066 0.312,-0.081C0.329,-0.096 0.343,-0.109 0.354,-0.12C0.364,-0.131 0.37,-0.137 0.372,-0.137C0.378,-0.137 0.381,-0.135 0.381,-0.131C0.381,-0.128 0.38,-0.125 0.378,-0.122C0.377,-0.121 0.375,-0.118 0.372,-0.114C0.368,-0.109 0.364,-0.105 0.361,-0.102C0.328,-0.071 0.295,-0.046 0.262,-0.026C0.228,-0.005 0.192,0.005 0.154,0.005Z" style="fill:rgb(253,250,239);fill-rule:nonzero;"/>
        </g>
        <g transform="matrix(287.557,0,0,287.557,2246.99,1561.52)">
            <path d="M0.264,-0.168C0.261,-0.16 0.258,-0.152 0.255,-0.144C0.251,-0.135 0.247,-0.127 0.243,-0.119C0.251,-0.12 0.259,-0.122 0.267,-0.124C0.275,-0.125 0.283,-0.127 0.291,-0.13C0.322,-0.141 0.348,-0.157 0.371,-0.178C0.393,-0.198 0.41,-0.221 0.423,-0.246C0.436,-0.271 0.442,-0.297 0.442,-0.322C0.442,-0.345 0.436,-0.367 0.423,-0.386C0.41,-0.405 0.389,-0.414 0.359,-0.414C0.35,-0.414 0.34,-0.413 0.329,-0.411L0.328,-0.411C0.324,-0.411 0.322,-0.413 0.322,-0.417C0.322,-0.42 0.324,-0.423 0.329,-0.425C0.34,-0.427 0.351,-0.428 0.361,-0.428C0.399,-0.428 0.427,-0.415 0.445,-0.39C0.462,-0.364 0.471,-0.334 0.471,-0.301C0.471,-0.276 0.463,-0.252 0.448,-0.228C0.433,-0.204 0.412,-0.183 0.386,-0.164C0.36,-0.145 0.331,-0.129 0.298,-0.118C0.288,-0.115 0.278,-0.112 0.268,-0.111C0.257,-0.11 0.247,-0.109 0.237,-0.108C0.226,-0.089 0.214,-0.071 0.2,-0.053C0.186,-0.034 0.17,-0.019 0.152,-0.007C0.133,0.005 0.112,0.012 0.088,0.013C0.073,0.013 0.061,0.009 0.05,0.001C0.039,-0.007 0.034,-0.018 0.034,-0.031C0.034,-0.068 0.055,-0.113 0.098,-0.165C0.097,-0.168 0.097,-0.172 0.096,-0.176C0.095,-0.18 0.095,-0.184 0.095,-0.187C0.095,-0.199 0.097,-0.211 0.1,-0.222C0.103,-0.233 0.11,-0.244 0.121,-0.255C0.131,-0.266 0.143,-0.275 0.158,-0.282C0.172,-0.288 0.186,-0.291 0.201,-0.291C0.224,-0.291 0.24,-0.286 0.251,-0.275C0.261,-0.264 0.267,-0.251 0.269,-0.236C0.269,-0.236 0.269,-0.234 0.27,-0.231C0.271,-0.227 0.271,-0.221 0.271,-0.214C0.271,-0.208 0.271,-0.201 0.27,-0.194C0.269,-0.186 0.267,-0.177 0.264,-0.168ZM0.224,-0.194C0.224,-0.212 0.221,-0.229 0.214,-0.245C0.207,-0.26 0.198,-0.268 0.185,-0.268C0.168,-0.268 0.155,-0.259 0.145,-0.24C0.138,-0.227 0.135,-0.213 0.135,-0.198L0.135,-0.192C0.148,-0.205 0.159,-0.211 0.17,-0.211C0.181,-0.211 0.189,-0.208 0.195,-0.201C0.197,-0.198 0.198,-0.196 0.198,-0.194C0.198,-0.19 0.194,-0.188 0.185,-0.188C0.178,-0.188 0.171,-0.185 0.165,-0.178C0.158,-0.171 0.151,-0.161 0.144,-0.15C0.149,-0.141 0.157,-0.134 0.168,-0.128C0.179,-0.122 0.192,-0.119 0.206,-0.118C0.216,-0.143 0.222,-0.165 0.224,-0.186L0.224,-0.194ZM0.124,-0.125C0.101,-0.082 0.089,-0.052 0.089,-0.034C0.089,-0.021 0.095,-0.014 0.106,-0.014C0.117,-0.014 0.131,-0.022 0.15,-0.038C0.161,-0.047 0.171,-0.058 0.18,-0.071C0.188,-0.083 0.195,-0.095 0.202,-0.108C0.185,-0.109 0.171,-0.112 0.158,-0.116C0.145,-0.119 0.136,-0.125 0.129,-0.133L0.124,-0.125Z" style="fill:rgb(253,250,239);fill-rule:nonzero;"/>
        </g>
    </g>
</svg>
